
<svg width="17" height="17" viewBox="0 0 17 17" fill="none" xmlns="http://www.w3.org/2000/svg">
<path d="M8.125 0C6.51803 0 4.94714 0.476523 3.611 1.36931C2.27485 2.2621 1.23344 3.53105 0.618482 5.0157C0.00352044 6.50035 -0.157382 8.13401 0.156123 9.71011C0.469628 11.2862 1.24346 12.7339 2.37976 13.8702C3.51606 15.0065 4.9638 15.7804 6.5399 16.0939C8.11599 16.4074 9.74966 16.2465 11.2343 15.6315C12.719 15.0166 13.9879 13.9752 14.8807 12.639C15.7735 11.3029 16.25 9.73197 16.25 8.125C16.2477 5.97081 15.391 3.90551 13.8677 2.38227C12.3445 0.85903 10.2792 0.00227486 8.125 0ZM8.125 15C6.76526 15 5.43605 14.5968 4.30546 13.8414C3.17487 13.0859 2.29368 12.0122 1.77333 10.7559C1.25298 9.49971 1.11683 8.11737 1.3821 6.78375C1.64738 5.45013 2.30216 4.22513 3.26364 3.26364C4.22513 2.30216 5.45014 1.64737 6.78376 1.3821C8.11738 1.11683 9.49971 1.25298 10.756 1.77333C12.0122 2.29368 13.0859 3.17487 13.8414 4.30545C14.5968 5.43604 15 6.76525 15 8.125C14.9979 9.94773 14.2729 11.6952 12.9841 12.9841C11.6952 14.2729 9.94773 14.9979 8.125 15ZM8.125 3.75C7.50703 3.75013 6.90298 3.93348 6.3892 4.27687C5.87541 4.62026 5.47498 5.10827 5.23851 5.6792C5.00204 6.25014 4.94016 6.87837 5.06068 7.48447C5.1812 8.09058 5.47872 8.64734 5.91563 9.08438L5.06719 11.2156C5.01057 11.3578 4.98961 11.5117 5.00615 11.6638C5.02268 11.8159 5.07621 11.9617 5.16206 12.0884C5.2479 12.2151 5.36345 12.3188 5.49862 12.3906C5.63379 12.4623 5.78447 12.4999 5.9375 12.5H10.3125C10.4655 12.4999 10.6162 12.4623 10.7514 12.3906C10.8866 12.3188 11.0021 12.2151 11.088 12.0884C11.1738 11.9617 11.2273 11.8159 11.2439 11.6638C11.2604 11.5117 11.2394 11.3578 11.1828 11.2156L10.3344 9.08438C10.7713 8.64734 11.0688 8.09058 11.1893 7.48447C11.3099 6.87837 11.248 6.25014 11.0115 5.6792C10.775 5.10827 10.3746 4.62026 9.86081 4.27687C9.34703 3.93348 8.74297 3.75013 8.125 3.75ZM9.0086 9.13281L9.85157 11.25H6.39844L7.24141 9.13281C7.29288 9.00359 7.29978 8.86089 7.26101 8.72731C7.22223 8.59373 7.14001 8.47689 7.02735 8.39531C6.70595 8.16324 6.46638 7.83526 6.34305 7.45851C6.21972 7.08175 6.21898 6.6756 6.34093 6.29839C6.46288 5.92118 6.70125 5.59234 7.0218 5.35909C7.34235 5.12584 7.72857 5.00019 8.125 5.00019C8.52143 5.00019 8.90766 5.12584 9.22821 5.35909C9.54876 5.59234 9.78713 5.92118 9.90908 6.29839C10.031 6.6756 10.0303 7.08175 9.90696 7.45851C9.78363 7.83526 9.54406 8.16324 9.22266 8.39531C9.11 8.47689 9.02777 8.59373 8.989 8.72731C8.95023 8.86089 8.95712 9.00359 9.0086 9.13281Z" fill="#1D1D1D"/>
</svg>
