<svg width="19" height="14" viewBox="0 0 19 14" fill="none" xmlns="http://www.w3.org/2000/svg">
<path d="M10.0037 9.82187C10.9835 9.21164 11.7379 8.29892 12.1527 7.22178C12.5675 6.14464 12.6203 4.9617 12.3029 3.85192C11.9856 2.74214 11.3154 1.76591 10.3938 1.07092C9.47226 0.375931 8.34941 0 7.19515 0C6.04089 0 4.91803 0.375931 3.99645 1.07092C3.07487 1.76591 2.40472 2.74214 2.08737 3.85192C1.77003 4.9617 1.82276 6.14464 2.23759 7.22178C2.65243 8.29892 3.40679 9.21164 4.38655 9.82187C2.77327 10.35 1.32171 11.3367 0.15452 12.7258C0.0998329 12.7883 0.0581616 12.8611 0.0319428 12.94C0.00572399 13.0188 -0.0045161 13.1021 0.0018212 13.1849C0.0081585 13.2677 0.030946 13.3485 0.0688515 13.4224C0.106757 13.4963 0.159019 13.5619 0.222584 13.6154C0.286148 13.6689 0.359738 13.7092 0.439051 13.7339C0.518365 13.7586 0.60181 13.7673 0.684508 13.7594C0.767206 13.7515 0.847498 13.7271 0.920688 13.6878C0.993878 13.6485 1.0585 13.595 1.11077 13.5305C2.67952 11.6586 4.84046 10.6281 7.19124 10.6281C9.54202 10.6281 11.703 11.6586 13.2748 13.5305C13.3815 13.6575 13.5343 13.7369 13.6996 13.7513C13.8649 13.7656 14.0291 13.7137 14.1561 13.607C14.2831 13.5003 14.3625 13.3475 14.3769 13.1823C14.3912 13.017 14.3394 12.8528 14.2326 12.7258C13.0647 11.3367 11.6131 10.35 10.0037 9.82187ZM3.12874 5.31562C3.12874 4.51214 3.367 3.7267 3.81339 3.05862C4.25979 2.39055 4.89426 1.86984 5.63659 1.56236C6.37891 1.25488 7.19575 1.17443 7.98379 1.33118C8.77184 1.48794 9.49571 1.87485 10.0639 2.443C10.632 3.01115 11.0189 3.73502 11.1757 4.52307C11.3324 5.31112 11.252 6.12795 10.9445 6.87028C10.637 7.6126 10.1163 8.24708 9.44824 8.69347C8.78017 9.13986 7.99473 9.37812 7.19124 9.37812C6.11418 9.37688 5.08159 8.94847 4.31999 8.18688C3.55839 7.42528 3.12998 6.39269 3.12874 5.31562ZM17.8358 8.68047L17.4717 8.47031C17.5144 8.24419 17.5144 8.01206 17.4717 7.78594L17.8358 7.57578C17.9794 7.4929 18.0841 7.35637 18.1271 7.19624C18.17 7.0361 18.1476 6.86546 18.0647 6.72187C17.9818 6.57828 17.8453 6.4735 17.6851 6.43057C17.525 6.38764 17.3544 6.41009 17.2108 6.49297L16.8459 6.70391C16.6713 6.55411 16.4706 6.43783 16.2537 6.36094V5.94062C16.2537 5.77486 16.1879 5.61589 16.0707 5.49868C15.9535 5.38147 15.7945 5.31562 15.6287 5.31562C15.463 5.31562 15.304 5.38147 15.1868 5.49868C15.0696 5.61589 15.0037 5.77486 15.0037 5.94062V6.36094C14.7869 6.43783 14.5862 6.55411 14.4116 6.70391L14.0467 6.49297C13.9756 6.45193 13.8971 6.4253 13.8157 6.41459C13.7343 6.40389 13.6516 6.40932 13.5723 6.43057C13.4931 6.45183 13.4187 6.48849 13.3536 6.53848C13.2885 6.58846 13.2338 6.65078 13.1928 6.72187C13.1518 6.79297 13.1251 6.87146 13.1144 6.95285C13.1037 7.03424 13.1091 7.11694 13.1304 7.19624C13.1517 7.27553 13.1883 7.34986 13.2383 7.41498C13.2883 7.4801 13.3506 7.53474 13.4217 7.57578L13.7858 7.78594C13.7431 8.01206 13.7431 8.24419 13.7858 8.47031L13.4217 8.68047C13.2781 8.76335 13.1733 8.89987 13.1304 9.06001C13.0875 9.22015 13.1099 9.39078 13.1928 9.53437C13.2757 9.67796 13.4122 9.78275 13.5723 9.82568C13.7325 9.86861 13.9031 9.84616 14.0467 9.76328L14.4116 9.55234C14.5862 9.70214 14.7869 9.81841 15.0037 9.89531V10.3156C15.0037 10.4814 15.0696 10.6404 15.1868 10.7576C15.304 10.8748 15.463 10.9406 15.6287 10.9406C15.7945 10.9406 15.9535 10.8748 16.0707 10.7576C16.1879 10.6404 16.2537 10.4814 16.2537 10.3156V9.89531C16.4706 9.81841 16.6713 9.70214 16.8459 9.55234L17.2108 9.76328C17.3057 9.81836 17.4135 9.84721 17.5233 9.84687C17.6609 9.84693 17.7947 9.80155 17.9039 9.71779C18.0131 9.63403 18.0916 9.51656 18.1272 9.38362C18.1628 9.25068 18.1536 9.1097 18.1009 8.98256C18.0482 8.85542 17.955 8.74923 17.8358 8.68047ZM15.0037 8.12812C15.0037 8.00451 15.0404 7.88367 15.1091 7.78089C15.1777 7.67811 15.2754 7.598 15.3896 7.5507C15.5038 7.5034 15.6294 7.49102 15.7507 7.51513C15.8719 7.53925 15.9833 7.59877 16.0707 7.68618C16.1581 7.77359 16.2176 7.88495 16.2417 8.00619C16.2658 8.12743 16.2535 8.2531 16.2062 8.3673C16.1589 8.48151 16.0788 8.57912 15.976 8.64779C15.8732 8.71647 15.7524 8.75312 15.6287 8.75312C15.463 8.75312 15.304 8.68728 15.1868 8.57007C15.0696 8.45286 15.0037 8.29389 15.0037 8.12812Z" fill="#1D1D1D"/>
</svg>
