<svg width="28" height="24" viewBox="0 0 28 24" fill="none" xmlns="http://www.w3.org/2000/svg">
<path d="M20.249 1C22.0389 1.00206 23.7549 1.71388 25.0205 2.97949C26.2861 4.2451 26.9979 5.96114 27 7.75098C26.9995 11.6576 24.0682 15.3563 20.7852 18.2314C18.3622 20.3533 15.8965 21.8973 14.7129 22.5908L14.0059 22.9912L14 22.9941L13.9941 22.9912L13.2871 22.5908C12.1035 21.8973 9.63778 20.3533 7.21484 18.2314C3.93182 15.3563 1.00049 11.6576 1 7.75098C1.00206 5.96114 1.71388 4.2451 2.97949 2.97949C4.24487 1.71411 5.96052 1.00231 7.75 1C10.039 1 11.9933 1.97956 13.2002 3.58691L14 4.65137L14.7998 3.58691C16.0065 1.97979 17.9604 1.00028 20.249 1Z" stroke="#838383" stroke-width="2"/>
</svg>
