<svg width="24" height="25" viewBox="0 0 24 25" fill="none" xmlns="http://www.w3.org/2000/svg">
<path d="M12.0059 1C12.2546 1.00006 12.4947 1.09244 12.6787 1.25977V1.25879L12.6797 1.25977L12.6787 1.26172L22.6787 10.6963L22.6826 10.7002C22.7834 10.7943 22.8634 10.9085 22.918 11.0352C22.9726 11.1618 23.0007 11.2986 23 11.4365V22.998C23 23.2632 22.8945 23.5176 22.707 23.7051C22.5195 23.8926 22.2652 23.998 22 23.998H17C16.7348 23.998 16.4805 23.8926 16.293 23.7051C16.1055 23.5176 16 23.2632 16 22.998V17.998C16 17.4677 15.7891 16.9591 15.4141 16.584C15.039 16.2089 14.5304 15.998 14 15.998H10C9.46957 15.998 8.96101 16.2089 8.58594 16.584C8.21092 16.959 8 17.4677 8 17.998V22.998C7.99995 23.2632 7.89453 23.5176 7.70703 23.7051C7.5195 23.8926 7.26517 23.998 7 23.998H2C1.73483 23.998 1.4805 23.8926 1.29297 23.7051C1.10547 23.5176 1.00005 23.2632 1 22.998V11.4414C0.999988 11.303 1.02837 11.1658 1.08398 11.0391C1.1396 10.9124 1.22142 10.7987 1.32324 10.7051L1.33203 10.6963L11.332 1.26172L11.3428 1.25195L11.3438 1.25C11.5263 1.08887 11.762 1 12.0059 1Z" stroke="#838383" stroke-width="2"/>
</svg>
