<svg width="16" height="16" viewBox="0 0 16 16" fill="none" xmlns="http://www.w3.org/2000/svg">
<path d="M7.99902 1.88477C8.13989 1.88477 8.42552 1.99849 8.70605 2.5625V2.56348L9.87891 4.90918C10.0039 5.16286 10.2123 5.38006 10.4277 5.53906C10.6443 5.69888 10.9138 5.83362 11.1914 5.87988L13.3174 6.2334C13.9111 6.33235 14.1063 6.56585 14.1514 6.70605C14.1961 6.84508 14.1751 7.14695 13.748 7.57129L12.0928 9.22656C11.878 9.44146 11.7345 9.72905 11.6553 10.0059C11.576 10.2829 11.5464 10.6013 11.6123 10.8955L11.6133 10.8994L12.0859 12.9453C12.2628 13.7129 12.0846 13.9891 11.9961 14.0537C11.9068 14.1188 11.5869 14.2042 10.9072 13.8027H10.9082L8.91504 12.623C8.63908 12.4595 8.3061 12.3936 8.00195 12.3936C7.69756 12.3936 7.36599 12.4599 7.08887 12.6211L7.08496 12.623L5.0918 13.8027C4.41788 14.2027 4.0968 14.1181 4.00586 14.0518C3.91524 13.9853 3.7381 13.707 3.91406 12.9463V12.9453L4.38672 10.8994L4.3877 10.8955C4.45358 10.6013 4.42398 10.2829 4.34473 10.0059C4.26549 9.72907 4.12195 9.44145 3.90723 9.22656L2.25391 7.57324C1.82924 7.14858 1.80677 6.84534 1.85156 6.70508C1.89631 6.5653 2.08897 6.33129 2.68164 6.23242L4.80859 5.87988L4.81055 5.87891C5.08518 5.8322 5.3526 5.69734 5.56738 5.53809C5.78119 5.3795 5.98838 5.16245 6.11328 4.90918L6.11426 4.91016L7.28711 2.56445C7.57091 1.99983 7.85723 1.88481 7.99902 1.88477Z" stroke="#FCD400" stroke-linecap="round" stroke-linejoin="round"/>
</svg>
