<svg width="16" height="16" viewBox="0 0 16 16" fill="none" xmlns="http://www.w3.org/2000/svg">
<path d="M8.66683 7.3335V4.00016C8.66683 3.82335 8.59659 3.65378 8.47157 3.52876C8.34654 3.40373 8.17697 3.3335 8.00016 3.3335C7.82335 3.3335 7.65378 3.40373 7.52876 3.52876C7.40373 3.65378 7.3335 3.82335 7.3335 4.00016V8.00016C7.3335 8.17697 7.40373 8.34654 7.52876 8.47157C7.65378 8.59659 7.82335 8.66683 8.00016 8.66683H11.3335C11.5103 8.66683 11.6799 8.59659 11.8049 8.47157C11.9299 8.34654 12.0002 8.17697 12.0002 8.00016C12.0002 7.82335 11.9299 7.65378 11.8049 7.52876C11.6799 7.40373 11.5103 7.3335 11.3335 7.3335H8.66683ZM8.00016 14.6668C4.31816 14.6668 1.3335 11.6822 1.3335 8.00016C1.3335 4.31816 4.31816 1.3335 8.00016 1.3335C11.6822 1.3335 14.6668 4.31816 14.6668 8.00016C14.6668 11.6822 11.6822 14.6668 8.00016 14.6668Z" fill="#32B768"/>
</svg>
