<svg width="20" height="20" viewBox="0 0 20 20" fill="none" xmlns="http://www.w3.org/2000/svg">
<path d="M0.833333 5.00016H19.1667C19.3877 5.00016 19.5996 4.91236 19.7559 4.75608C19.9122 4.5998 20 4.38784 20 4.16683C20 3.94581 19.9122 3.73385 19.7559 3.57757C19.5996 3.42129 19.3877 3.3335 19.1667 3.3335H0.833333C0.61232 3.3335 0.400358 3.42129 0.244078 3.57757C0.0877974 3.73385 0 3.94581 0 4.16683C0 4.38784 0.0877974 4.5998 0.244078 4.75608C0.400358 4.91236 0.61232 5.00016 0.833333 5.00016Z" fill="black"/>
<path d="M0.833333 9.16666H12.5C12.721 9.16666 12.933 9.07887 13.0893 8.92259C13.2455 8.76631 13.3333 8.55435 13.3333 8.33333C13.3333 8.11232 13.2455 7.90036 13.0893 7.74408C12.933 7.5878 12.721 7.5 12.5 7.5H0.833333C0.61232 7.5 0.400358 7.5878 0.244078 7.74408C0.0877974 7.90036 0 8.11232 0 8.33333C0 8.55435 0.0877974 8.76631 0.244078 8.92259C0.400358 9.07887 0.61232 9.16666 0.833333 9.16666Z" fill="black"/>
<path d="M12.5 15.8335H0.833333C0.61232 15.8335 0.400358 15.9213 0.244078 16.0776C0.0877974 16.2339 0 16.4458 0 16.6668C0 16.8878 0.0877974 17.0998 0.244078 17.2561C0.400358 17.4124 0.61232 17.5002 0.833333 17.5002H12.5C12.721 17.5002 12.933 17.4124 13.0893 17.2561C13.2455 17.0998 13.3333 16.8878 13.3333 16.6668C13.3333 16.4458 13.2455 16.2339 13.0893 16.0776C12.933 15.9213 12.721 15.8335 12.5 15.8335Z" fill="black"/>
<path d="M19.1667 11.6665H0.833333C0.61232 11.6665 0.400358 11.7543 0.244078 11.9106C0.0877974 12.0669 0 12.2788 0 12.4998C0 12.7209 0.0877974 12.9328 0.244078 13.0891C0.400358 13.2454 0.61232 13.3332 0.833333 13.3332H19.1667C19.3877 13.3332 19.5996 13.2454 19.7559 13.0891C19.9122 12.9328 20 12.7209 20 12.4998C20 12.2788 19.9122 12.0669 19.7559 11.9106C19.5996 11.7543 19.3877 11.6665 19.1667 11.6665Z" fill="black"/>
</svg>
