<svg width="20" height="20" viewBox="0 0 20 20" fill="none" xmlns="http://www.w3.org/2000/svg">
<path d="M17.9417 17.0575L14.03 13.1459C15.025 11.9534 15.625 10.4208 15.625 8.75C15.625 4.95917 12.5408 1.875 8.75 1.875C4.95917 1.875 1.875 4.95917 1.875 8.75C1.875 12.5408 4.95917 15.625 8.75 15.625C10.4208 15.625 11.9533 15.025 13.1458 14.03L17.0575 17.9417C17.1792 18.0634 17.3392 18.125 17.4992 18.125C17.6592 18.125 17.8192 18.0642 17.9408 17.9417C18.1858 17.6975 18.1858 17.3017 17.9417 17.0575ZM3.125 8.75C3.125 5.64833 5.64833 3.125 8.75 3.125C11.8517 3.125 14.375 5.64833 14.375 8.75C14.375 11.8517 11.8517 14.375 8.75 14.375C5.64833 14.375 3.125 11.8517 3.125 8.75Z" fill="#838383"/>
</svg>
